STARTFONT 2.1
FONT -FontForge-Righteous-Book-R-Normal--12-120-72-72-P-64-ISO10646-1
SIZE 12 72 72
FONTBOUNDINGBOX 15 15 -2 -3
COMMENT "Generated by fontforge, http://fontforge.sourceforge.net"
COMMENT "Copyright (c) 2011 by Brian J. Bonislawsky DBA Astigmatic (AOETI) (astigma@astigmatic.com), with ReservedFont Name "Righteous""
STARTPROPERTIES 39
FOUNDRY "FontForge"
FAMILY_NAME "Righteous"
WEIGHT_NAME "Book"
SLANT "R"
SETWIDTH_NAME "Normal"
ADD_STYLE_NAME ""
PIXEL_SIZE 12
POINT_SIZE 120
RESOLUTION_X 72
RESOLUTION_Y 72
SPACING "P"
AVERAGE_WIDTH 64
CHARSET_REGISTRY "ISO10646"
CHARSET_ENCODING "1"
FONTNAME_REGISTRY ""
CHARSET_COLLECTIONS "ISO8859-2 ISO8859-9 ISO8859-4 ISO10646-1"
FONT_NAME "Righteous-Regular"
FACE_NAME "Righteous"
COPYRIGHT "Copyright (c) 2011 by Brian J. Bonislawsky DBA Astigmatic (AOETI) (astigma@astigmatic.com), with ReservedFont Name "Righteous""
FONT_VERSION "1.000"
FONT_ASCENT 10
FONT_DESCENT 2
UNDERLINE_POSITION -2
UNDERLINE_THICKNESS 1
X_HEIGHT 5
CAP_HEIGHT 7
RAW_ASCENT 799
RAW_DESCENT 200
NORM_SPACE 3
RELATIVE_WEIGHT 40
RELATIVE_SETWIDTH 50
SUPERSCRIPT_X 0
SUPERSCRIPT_Y 5
SUPERSCRIPT_SIZE 7
SUBSCRIPT_X 0
SUBSCRIPT_Y 1
SUBSCRIPT_SIZE 7
AVG_LOWERCASE_WIDTH 63
AVG_UPPERCASE_WIDTH 75
ENDPROPERTIES
CHARS 372
STARTCHAR space
ENCODING 32
SWIDTH 279 0
DWIDTH 3 0
BBX 1 1 0 0
BITMAP
00
ENDCHAR
STARTCHAR exclam
ENCODING 33
SWIDTH 274 0
DWIDTH 3 0
BBX 2 8 1 0
BITMAP
C0
C0
80
80
80
80
80
C0
ENDCHAR
STARTCHAR quotedbl
ENCODING 34
SWIDTH 409 0
DWIDTH 5 0
BBX 3 2 1 6
BITMAP
A0
A0
ENDCHAR
STARTCHAR numbersign
ENCODING 35
SWIDTH 561 0
DWIDTH 7 0
BBX 6 6 0 1
BITMAP
3C
7C
28
7C
F8
50
ENDCHAR
STARTCHAR dollar
ENCODING 36
SWIDTH 458 0
DWIDTH 6 0
BBX 4 8 1 0
BITMAP
40
F0
80
F0
10
F0
40
40
ENDCHAR
STARTCHAR percent
ENCODING 37
SWIDTH 685 0
DWIDTH 8 0
BBX 8 9 0 0
BITMAP
20
76
D4
78
68
16
1D
2D
66
ENDCHAR
STARTCHAR ampersand
ENCODING 38
SWIDTH 485 0
DWIDTH 6 0
BBX 4 8 1 0
BITMAP
20
F0
80
E0
C0
80
F0
20
ENDCHAR
STARTCHAR quotesingle
ENCODING 39
SWIDTH 238 0
DWIDTH 3 0
BBX 1 2 1 6
BITMAP
80
80
ENDCHAR
STARTCHAR parenleft
ENCODING 40
SWIDTH 351 0
DWIDTH 4 0
BBX 4 11 0 -1
BITMAP
30
60
60
40
40
C0
C0
40
60
60
30
ENDCHAR
STARTCHAR parenright
ENCODING 41
SWIDTH 351 0
DWIDTH 4 0
BBX 4 11 0 -1
BITMAP
C0
60
60
30
30
30
30
30
20
60
40
ENDCHAR
STARTCHAR asterisk
ENCODING 42
SWIDTH 589 0
DWIDTH 7 0
BBX 7 6 0 4
BITMAP
10
54
FE
38
3C
6C
ENDCHAR
STARTCHAR plus
ENCODING 43
SWIDTH 485 0
DWIDTH 6 0
BBX 5 5 0 2
BITMAP
30
30
F8
F8
30
ENDCHAR
STARTCHAR comma
ENCODING 44
SWIDTH 264 0
DWIDTH 3 0
BBX 2 3 1 -1
BITMAP
80
C0
80
ENDCHAR
STARTCHAR hyphen
ENCODING 45
SWIDTH 528 0
DWIDTH 6 0
BBX 5 2 1 3
BITMAP
F8
F8
ENDCHAR
STARTCHAR period
ENCODING 46
SWIDTH 263 0
DWIDTH 3 0
BBX 2 2 1 0
BITMAP
80
C0
ENDCHAR
STARTCHAR slash
ENCODING 47
SWIDTH 490 0
DWIDTH 6 0
BBX 4 8 1 0
BITMAP
30
30
20
60
60
C0
C0
80
ENDCHAR
STARTCHAR zero
ENCODING 48
SWIDTH 642 0
DWIDTH 8 0
BBX 6 8 1 0
BITMAP
F8
CC
8C
84
84
8C
DC
78
ENDCHAR
STARTCHAR one
ENCODING 49
SWIDTH 317 0
DWIDTH 4 0
BBX 3 8 0 0
BITMAP
E0
60
60
60
60
60
60
60
ENDCHAR
STARTCHAR two
ENCODING 50
SWIDTH 570 0
DWIDTH 7 0
BBX 5 8 1 0
BITMAP
F8
18
08
F8
F0
80
F8
F8
ENDCHAR
STARTCHAR three
ENCODING 51
SWIDTH 586 0
DWIDTH 7 0
BBX 5 8 1 0
BITMAP
F8
08
08
78
78
08
F8
F0
ENDCHAR
STARTCHAR four
ENCODING 52
SWIDTH 630 0
DWIDTH 8 0
BBX 7 8 0 0
BITMAP
64
64
64
44
44
FE
04
04
ENDCHAR
STARTCHAR five
ENCODING 53
SWIDTH 585 0
DWIDTH 7 0
BBX 6 8 1 0
BITMAP
F8
C0
80
F8
18
0C
F8
F8
ENDCHAR
STARTCHAR six
ENCODING 54
SWIDTH 615 0
DWIDTH 7 0
BBX 7 8 0 0
BITMAP
30
60
7C
66
C6
46
6E
3C
ENDCHAR
STARTCHAR seven
ENCODING 55
SWIDTH 516 0
DWIDTH 6 0
BBX 6 8 0 0
BITMAP
FC
0C
18
18
10
30
30
20
ENDCHAR
STARTCHAR eight
ENCODING 56
SWIDTH 618 0
DWIDTH 7 0
BBX 7 9 0 0
BITMAP
18
7C
66
64
3C
66
C6
66
7C
ENDCHAR
STARTCHAR nine
ENCODING 57
SWIDTH 616 0
DWIDTH 7 0
BBX 7 9 0 0
BITMAP
18
7C
66
C6
C6
7E
3C
0C
18
ENDCHAR
STARTCHAR colon
ENCODING 58
SWIDTH 276 0
DWIDTH 3 0
BBX 2 5 1 0
BITMAP
C0
C0
00
80
C0
ENDCHAR
STARTCHAR semicolon
ENCODING 59
SWIDTH 276 0
DWIDTH 3 0
BBX 2 6 1 -1
BITMAP
C0
C0
00
80
C0
80
ENDCHAR
STARTCHAR less
ENCODING 60
SWIDTH 478 0
DWIDTH 6 0
BBX 5 6 0 2
BITMAP
18
38
70
E0
70
38
ENDCHAR
STARTCHAR equal
ENCODING 61
SWIDTH 539 0
DWIDTH 6 0
BBX 5 4 1 2
BITMAP
F8
00
F8
F8
ENDCHAR
STARTCHAR greater
ENCODING 62
SWIDTH 478 0
DWIDTH 6 0
BBX 4 7 1 1
BITMAP
80
C0
60
30
60
C0
80
ENDCHAR
STARTCHAR question
ENCODING 63
SWIDTH 603 0
DWIDTH 7 0
BBX 7 8 0 0
BITMAP
FC
06
06
1C
38
30
20
30
ENDCHAR
STARTCHAR at
ENCODING 64
SWIDTH 629 0
DWIDTH 8 0
BBX 7 6 0 0
BITMAP
7C
5A
FA
7E
40
38
ENDCHAR
STARTCHAR A
ENCODING 65
SWIDTH 673 0
DWIDTH 8 0
BBX 6 8 1 0
BITMAP
78
CC
84
84
84
FC
84
84
ENDCHAR
STARTCHAR B
ENCODING 66
SWIDTH 666 0
DWIDTH 8 0
BBX 7 8 1 0
BITMAP
FC
84
84
FC
FC
86
FC
F8
ENDCHAR
STARTCHAR C
ENCODING 67
SWIDTH 640 0
DWIDTH 8 0
BBX 7 9 0 0
BITMAP
08
3E
62
40
C0
C0
60
7E
3E
ENDCHAR
STARTCHAR D
ENCODING 68
SWIDTH 653 0
DWIDTH 8 0
BBX 7 8 1 0
BITMAP
F8
9C
8C
86
84
8C
FC
F0
ENDCHAR
STARTCHAR E
ENCODING 69
SWIDTH 578 0
DWIDTH 7 0
BBX 6 8 1 0
BITMAP
FC
80
80
F0
F0
80
FC
FC
ENDCHAR
STARTCHAR F
ENCODING 70
SWIDTH 562 0
DWIDTH 7 0
BBX 6 8 1 0
BITMAP
FC
80
80
F0
F0
80
80
80
ENDCHAR
STARTCHAR G
ENCODING 71
SWIDTH 665 0
DWIDTH 8 0
BBX 7 8 0 0
BITMAP
3E
62
40
C0
C2
62
76
3E
ENDCHAR
STARTCHAR H
ENCODING 72
SWIDTH 689 0
DWIDTH 8 0
BBX 7 8 1 0
BITMAP
86
86
86
FE
FE
86
86
86
ENDCHAR
STARTCHAR I
ENCODING 73
SWIDTH 270 0
DWIDTH 3 0
BBX 1 8 1 0
BITMAP
80
80
80
80
80
80
80
80
ENDCHAR
STARTCHAR J
ENCODING 74
SWIDTH 416 0
DWIDTH 5 0
BBX 4 8 0 0
BITMAP
10
10
10
10
10
30
F0
E0
ENDCHAR
STARTCHAR K
ENCODING 75
SWIDTH 625 0
DWIDTH 8 0
BBX 6 8 1 0
BITMAP
8C
98
B0
B0
F8
D8
8C
8C
ENDCHAR
STARTCHAR L
ENCODING 76
SWIDTH 562 0
DWIDTH 7 0
BBX 6 8 1 0
BITMAP
80
80
80
80
80
80
FC
FC
ENDCHAR
STARTCHAR M
ENCODING 77
SWIDTH 819 0
DWIDTH 10 0
BBX 8 9 1 0
BITMAP
04
FF
DB
9B
9B
9B
9B
9B
9B
ENDCHAR
STARTCHAR N
ENCODING 78
SWIDTH 689 0
DWIDTH 8 0
BBX 7 8 1 0
BITMAP
C6
E6
E6
B6
96
9E
8E
8E
ENDCHAR
STARTCHAR O
ENCODING 79
SWIDTH 777 0
DWIDTH 9 0
BBX 9 9 0 0
BITMAP
0800
3E00
6300
4180
C180
C180
6180
7F00
3E00
ENDCHAR
STARTCHAR P
ENCODING 80
SWIDTH 642 0
DWIDTH 8 0
BBX 6 8 1 0
BITMAP
F8
8C
84
84
8C
F8
80
80
ENDCHAR
STARTCHAR Q
ENCODING 81
SWIDTH 777 0
DWIDTH 9 0
BBX 9 11 0 -2
BITMAP
0800
3E00
6300
4180
C180
C180
6180
7F00
3E00
0600
0300
ENDCHAR
STARTCHAR R
ENCODING 82
SWIDTH 651 0
DWIDTH 8 0
BBX 6 8 1 0
BITMAP
F8
8C
84
84
8C
F8
98
8C
ENDCHAR
STARTCHAR S
ENCODING 83
SWIDTH 610 0
DWIDTH 7 0
BBX 7 8 0 0
BITMAP
7E
C0
C0
7C
3E
06
7E
7C
ENDCHAR
STARTCHAR T
ENCODING 84
SWIDTH 578 0
DWIDTH 7 0
BBX 7 8 0 0
BITMAP
FE
10
10
10
10
10
10
10
ENDCHAR
STARTCHAR U
ENCODING 85
SWIDTH 673 0
DWIDTH 8 0
BBX 6 8 1 0
BITMAP
84
84
84
84
84
CC
FC
78
ENDCHAR
STARTCHAR V
ENCODING 86
SWIDTH 602 0
DWIDTH 7 0
BBX 7 8 0 0
BITMAP
C6
46
6C
6C
2C
38
38
18
ENDCHAR
STARTCHAR W
ENCODING 87
SWIDTH 819 0
DWIDTH 10 0
BBX 8 8 1 0
BITMAP
9B
9B
9B
9B
9B
9B
FF
7E
ENDCHAR
STARTCHAR X
ENCODING 88
SWIDTH 608 0
DWIDTH 7 0
BBX 7 8 0 0
BITMAP
66
6C
3C
38
38
3C
6C
C6
ENDCHAR
STARTCHAR Y
ENCODING 89
SWIDTH 620 0
DWIDTH 7 0
BBX 7 8 0 0
BITMAP
C6
C6
C6
66
7C
18
18
18
ENDCHAR
STARTCHAR Z
ENCODING 90
SWIDTH 586 0
DWIDTH 7 0
BBX 7 8 0 0
BITMAP
FC
0C
18
18
30
30
7E
7E
ENDCHAR
STARTCHAR bracketleft
ENCODING 91
SWIDTH 380 0
DWIDTH 5 0
BBX 3 11 1 -1
BITMAP
E0
E0
80
80
80
80
80
80
80
80
E0
ENDCHAR
STARTCHAR backslash
ENCODING 92
SWIDTH 490 0
DWIDTH 6 0
BBX 4 8 1 0
BITMAP
80
C0
40
60
60
30
30
10
ENDCHAR
STARTCHAR bracketright
ENCODING 93
SWIDTH 380 0
DWIDTH 5 0
BBX 4 11 0 -1
BITMAP
F0
F0
30
30
30
30
30
30
30
30
F0
ENDCHAR
STARTCHAR asciicircum
ENCODING 94
SWIDTH 293 0
DWIDTH 4 0
BBX 3 2 0 6
BITMAP
60
A0
ENDCHAR
STARTCHAR underscore
ENCODING 95
SWIDTH 598 0
DWIDTH 7 0
BBX 5 2 1 -3
BITMAP
F8
F8
ENDCHAR
STARTCHAR grave
ENCODING 96
SWIDTH 225 0
DWIDTH 3 0
BBX 3 2 0 6
BITMAP
C0
60
ENDCHAR
STARTCHAR a
ENCODING 97
SWIDTH 607 0
DWIDTH 7 0
BBX 7 7 0 0
BITMAP
10
7E
4E
C6
C6
6E
3A
ENDCHAR
STARTCHAR b
ENCODING 98
SWIDTH 597 0
DWIDTH 7 0
BBX 7 9 0 0
BITMAP
C0
C0
C0
FC
E6
C6
46
7C
3C
ENDCHAR
STARTCHAR c
ENCODING 99
SWIDTH 521 0
DWIDTH 6 0
BBX 6 7 0 0
BITMAP
10
7C
4C
C0
C0
6C
38
ENDCHAR
STARTCHAR d
ENCODING 100
SWIDTH 606 0
DWIDTH 7 0
BBX 7 9 0 0
BITMAP
06
06
16
7E
4E
C6
C6
6E
3A
ENDCHAR
STARTCHAR e
ENCODING 101
SWIDTH 524 0
DWIDTH 6 0
BBX 6 7 0 0
BITMAP
10
7C
4C
D8
F0
6C
38
ENDCHAR
STARTCHAR f
ENCODING 102
SWIDTH 395 0
DWIDTH 5 0
BBX 5 9 0 0
BITMAP
38
60
60
F8
60
60
60
60
60
ENDCHAR
STARTCHAR g
ENCODING 103
SWIDTH 607 0
DWIDTH 7 0
BBX 7 9 0 -2
BITMAP
10
7E
4E
C6
C6
6E
3E
0C
1C
ENDCHAR
STARTCHAR h
ENCODING 104
SWIDTH 562 0
DWIDTH 7 0
BBX 5 9 1 0
BITMAP
80
80
80
F0
D8
88
88
88
88
ENDCHAR
STARTCHAR i
ENCODING 105
SWIDTH 235 0
DWIDTH 3 0
BBX 2 9 0 0
BITMAP
C0
C0
00
40
40
40
40
40
40
ENDCHAR
STARTCHAR j
ENCODING 106
SWIDTH 237 0
DWIDTH 3 0
BBX 4 11 -2 -2
BITMAP
10
30
00
10
10
10
10
10
10
30
E0
ENDCHAR
STARTCHAR k
ENCODING 107
SWIDTH 539 0
DWIDTH 6 0
BBX 5 9 1 0
BITMAP
80
80
80
98
B0
E0
F0
D8
98
ENDCHAR
STARTCHAR l
ENCODING 108
SWIDTH 235 0
DWIDTH 3 0
BBX 1 9 1 0
BITMAP
80
80
80
80
80
80
80
80
80
ENDCHAR
STARTCHAR m
ENCODING 109
SWIDTH 762 0
DWIDTH 9 0
BBX 8 6 1 0
BITMAP
FE
9B
93
93
93
93
ENDCHAR
STARTCHAR n
ENCODING 110
SWIDTH 562 0
DWIDTH 7 0
BBX 5 6 1 0
BITMAP
F0
D8
88
88
88
88
ENDCHAR
STARTCHAR o
ENCODING 111
SWIDTH 579 0
DWIDTH 7 0
BBX 7 7 0 0
BITMAP
10
7C
44
C6
C6
6C
38
ENDCHAR
STARTCHAR p
ENCODING 112
SWIDTH 608 0
DWIDTH 7 0
BBX 6 8 1 -2
BITMAP
F8
CC
8C
8C
FC
F8
80
80
ENDCHAR
STARTCHAR q
ENCODING 113
SWIDTH 607 0
DWIDTH 7 0
BBX 7 8 0 -2
BITMAP
7E
4E
C6
C6
6E
3E
06
06
ENDCHAR
STARTCHAR r
ENCODING 114
SWIDTH 414 0
DWIDTH 5 0
BBX 4 6 1 0
BITMAP
F0
C0
80
80
80
80
ENDCHAR
STARTCHAR s
ENCODING 115
SWIDTH 523 0
DWIDTH 6 0
BBX 6 6 0 0
BITMAP
7C
C0
78
7C
FC
F8
ENDCHAR
STARTCHAR t
ENCODING 116
SWIDTH 437 0
DWIDTH 5 0
BBX 5 9 0 0
BITMAP
60
60
60
F8
60
60
60
78
38
ENDCHAR
STARTCHAR u
ENCODING 117
SWIDTH 562 0
DWIDTH 7 0
BBX 5 6 1 0
BITMAP
88
88
88
98
F8
78
ENDCHAR
STARTCHAR v
ENCODING 118
SWIDTH 532 0
DWIDTH 6 0
BBX 6 6 0 0
BITMAP
CC
4C
68
78
38
30
ENDCHAR
STARTCHAR w
ENCODING 119
SWIDTH 756 0
DWIDTH 9 0
BBX 8 6 1 0
BITMAP
93
93
93
93
FE
FE
ENDCHAR
STARTCHAR x
ENCODING 120
SWIDTH 528 0
DWIDTH 6 0
BBX 6 6 0 0
BITMAP
4C
78
30
38
78
CC
ENDCHAR
STARTCHAR y
ENCODING 121
SWIDTH 562 0
DWIDTH 7 0
BBX 5 8 1 -2
BITMAP
88
88
88
98
F8
78
18
70
ENDCHAR
STARTCHAR z
ENCODING 122
SWIDTH 481 0
DWIDTH 6 0
BBX 6 6 0 0
BITMAP
F8
18
30
20
7C
7C
ENDCHAR
STARTCHAR braceleft
ENCODING 123
SWIDTH 466 0
DWIDTH 6 0
BBX 5 11 0 -1
BITMAP
18
38
20
20
20
E0
E0
20
20
20
38
ENDCHAR
STARTCHAR bar
ENCODING 124
SWIDTH 267 0
DWIDTH 3 0
BBX 1 11 1 -1
BITMAP
80
80
80
80
80
80
80
80
80
80
80
ENDCHAR
STARTCHAR braceright
ENCODING 125
SWIDTH 466 0
DWIDTH 6 0
BBX 5 11 0 -1
BITMAP
E0
F0
30
30
30
18
38
30
30
30
E0
ENDCHAR
STARTCHAR asciitilde
ENCODING 126
SWIDTH 451 0
DWIDTH 5 0
BBX 4 3 1 3
BITMAP
10
F0
A0
ENDCHAR
STARTCHAR nonbreakingspace
ENCODING 160
SWIDTH 279 0
DWIDTH 3 0
BBX 1 1 0 0
BITMAP
00
ENDCHAR
STARTCHAR exclamdown
ENCODING 161
SWIDTH 274 0
DWIDTH 3 0
BBX 2 9 1 -2
BITMAP
C0
80
80
80
80
80
C0
C0
C0
ENDCHAR
STARTCHAR cent
ENCODING 162
SWIDTH 462 0
DWIDTH 6 0
BBX 5 8 0 0
BITMAP
30
38
48
C0
40
78
30
30
ENDCHAR
STARTCHAR sterling
ENCODING 163
SWIDTH 681 0
DWIDTH 8 0
BBX 7 8 1 0
BITMAP
70
40
40
E0
E0
46
7E
7C
ENDCHAR
STARTCHAR currency
ENCODING 164
SWIDTH 454 0
DWIDTH 5 0
BBX 5 4 0 2
BITMAP
F8
48
48
F8
ENDCHAR
STARTCHAR yen
ENCODING 165
SWIDTH 653 0
DWIDTH 8 0
BBX 6 8 1 0
BITMAP
84
84
84
CC
78
FC
30
30
ENDCHAR
STARTCHAR brokenbar
ENCODING 166
SWIDTH 269 0
DWIDTH 3 0
BBX 1 11 1 -1
BITMAP
80
80
80
80
80
00
80
80
80
80
80
ENDCHAR
STARTCHAR section
ENCODING 167
SWIDTH 569 0
DWIDTH 7 0
BBX 5 8 1 0
BITMAP
F8
80
F8
88
F8
78
F8
F8
ENDCHAR
STARTCHAR dieresis
ENCODING 168
SWIDTH 300 0
DWIDTH 4 0
BBX 3 2 0 6
BITMAP
A0
A0
ENDCHAR
STARTCHAR copyright
ENCODING 169
SWIDTH 655 0
DWIDTH 8 0
BBX 6 7 1 1
BITMAP
30
C8
F4
44
44
B4
78
ENDCHAR
STARTCHAR ordfeminine
ENCODING 170
SWIDTH 451 0
DWIDTH 5 0
BBX 4 6 1 3
BITMAP
40
B0
90
F0
00
F0
ENDCHAR
STARTCHAR guillemotleft
ENCODING 171
SWIDTH 704 0
DWIDTH 8 0
BBX 7 6 1 0
BITMAP
26
6C
D8
DC
6E
20
ENDCHAR
STARTCHAR logicalnot
ENCODING 172
SWIDTH 529 0
DWIDTH 6 0
BBX 5 3 1 2
BITMAP
F8
F8
18
ENDCHAR
STARTCHAR uni00AD
ENCODING 173
SWIDTH 418 0
DWIDTH 5 0
BBX 3 2 1 3
BITMAP
E0
E0
ENDCHAR
STARTCHAR registered
ENCODING 174
SWIDTH 439 0
DWIDTH 5 0
BBX 5 4 0 4
BITMAP
60
98
08
70
ENDCHAR
STARTCHAR macron
ENCODING 175
SWIDTH 247 0
DWIDTH 3 0
BBX 3 2 0 6
BITMAP
E0
E0
ENDCHAR
STARTCHAR degree
ENCODING 176
SWIDTH 381 0
DWIDTH 5 0
BBX 4 3 0 5
BITMAP
70
D0
70
ENDCHAR
STARTCHAR plusminus
ENCODING 177
SWIDTH 516 0
DWIDTH 6 0
BBX 5 6 1 0
BITMAP
60
F8
F8
60
F8
F8
ENDCHAR
STARTCHAR twosuperior
ENCODING 178
SWIDTH 355 0
DWIDTH 4 0
BBX 3 4 1 4
BITMAP
E0
E0
80
E0
ENDCHAR
STARTCHAR threesuperior
ENCODING 179
SWIDTH 354 0
DWIDTH 4 0
BBX 3 4 1 4
BITMAP
E0
E0
20
C0
ENDCHAR
STARTCHAR acute
ENCODING 180
SWIDTH 225 0
DWIDTH 3 0
BBX 2 2 0 6
BITMAP
40
C0
ENDCHAR
STARTCHAR mu
ENCODING 181
SWIDTH 571 0
DWIDTH 7 0
BBX 5 9 1 -3
BITMAP
88
88
88
88
D8
F0
80
80
80
ENDCHAR
STARTCHAR paragraph
ENCODING 182
SWIDTH 808 0
DWIDTH 10 0
BBX 9 8 0 0
BITMAP
3F80
6D80
CD80
CD80
6D80
3D80
0D80
0D80
ENDCHAR
STARTCHAR periodcentered
ENCODING 183
SWIDTH 261 0
DWIDTH 3 0
BBX 2 2 1 3
BITMAP
C0
80
ENDCHAR
STARTCHAR cedilla
ENCODING 184
SWIDTH 208 0
DWIDTH 3 0
BBX 3 3 0 -3
BITMAP
40
E0
C0
ENDCHAR
STARTCHAR onesuperior
ENCODING 185
SWIDTH 231 0
DWIDTH 3 0
BBX 1 4 1 4
BITMAP
80
80
80
80
ENDCHAR
STARTCHAR ordmasculine
ENCODING 186
SWIDTH 432 0
DWIDTH 5 0
BBX 4 6 1 3
BITMAP
40
A0
90
E0
00
F0
ENDCHAR
STARTCHAR guillemotright
ENCODING 187
SWIDTH 703 0
DWIDTH 8 0
BBX 7 6 1 0
BITMAP
88
CC
66
66
DC
88
ENDCHAR
STARTCHAR onequarter
ENCODING 188
SWIDTH 648 0
DWIDTH 8 0
BBX 6 8 1 0
BITMAP
88
90
B0
A0
74
54
DC
84
ENDCHAR
STARTCHAR onehalf
ENCODING 189
SWIDTH 637 0
DWIDTH 8 0
BBX 6 8 1 0
BITMAP
88
90
B0
A0
7C
4C
D8
9C
ENDCHAR
STARTCHAR threequarters
ENCODING 190
SWIDTH 708 0
DWIDTH 9 0
BBX 7 8 1 0
BITMAP
CC
C8
70
D0
2A
2A
4E
C2
ENDCHAR
STARTCHAR questiondown
ENCODING 191
SWIDTH 602 0
DWIDTH 7 0
BBX 7 9 0 -2
BITMAP
08
08
08
18
78
C0
C0
7E
3E
ENDCHAR
STARTCHAR Agrave
ENCODING 192
SWIDTH 673 0
DWIDTH 8 0
BBX 6 11 1 0
BITMAP
60
20
00
78
CC
84
84
84
FC
84
84
ENDCHAR
STARTCHAR Aacute
ENCODING 193
SWIDTH 673 0
DWIDTH 8 0
BBX 6 11 1 0
BITMAP
18
10
00
78
CC
84
84
84
FC
84
84
ENDCHAR
STARTCHAR Acircumflex
ENCODING 194
SWIDTH 673 0
DWIDTH 8 0
BBX 6 11 1 0
BITMAP
30
30
00
78
CC
84
84
84
FC
84
84
ENDCHAR
STARTCHAR Atilde
ENCODING 195
SWIDTH 673 0
DWIDTH 8 0
BBX 6 11 1 0
BITMAP
78
58
00
78
CC
84
84
84
FC
84
84
ENDCHAR
STARTCHAR Adieresis
ENCODING 196
SWIDTH 673 0
DWIDTH 8 0
BBX 6 10 1 0
BITMAP
68
08
78
CC
84
84
84
FC
84
84
ENDCHAR
STARTCHAR Aring
ENCODING 197
SWIDTH 673 0
DWIDTH 8 0
BBX 6 10 1 0
BITMAP
30
30
78
CC
84
84
84
FC
84
84
ENDCHAR
STARTCHAR AE
ENCODING 198
SWIDTH 988 0
DWIDTH 12 0
BBX 10 8 1 0
BITMAP
7FC0
C400
8400
8780
8780
FC00
87C0
87C0
ENDCHAR
STARTCHAR Ccedilla
ENCODING 199
SWIDTH 640 0
DWIDTH 8 0
BBX 7 12 0 -3
BITMAP
08
3E
62
40
C0
C0
60
7E
3E
00
08
18
ENDCHAR
STARTCHAR Egrave
ENCODING 200
SWIDTH 578 0
DWIDTH 7 0
BBX 6 11 1 0
BITMAP
60
20
00
FC
80
80
F0
F0
80
FC
FC
ENDCHAR
STARTCHAR Eacute
ENCODING 201
SWIDTH 578 0
DWIDTH 7 0
BBX 6 11 1 0
BITMAP
18
30
00
FC
80
80
F0
F0
80
FC
FC
ENDCHAR
STARTCHAR Ecircumflex
ENCODING 202
SWIDTH 578 0
DWIDTH 7 0
BBX 6 11 1 0
BITMAP
30
50
00
FC
80
80
F0
F0
80
FC
FC
ENDCHAR
STARTCHAR Edieresis
ENCODING 203
SWIDTH 578 0
DWIDTH 7 0
BBX 6 11 1 0
BITMAP
50
50
00
FC
80
80
F0
F0
80
FC
FC
ENDCHAR
STARTCHAR Igrave
ENCODING 204
SWIDTH 270 0
DWIDTH 3 0
BBX 2 11 0 0
BITMAP
80
40
00
40
40
40
40
40
40
40
40
ENDCHAR
STARTCHAR Iacute
ENCODING 205
SWIDTH 270 0
DWIDTH 3 0
BBX 2 11 1 0
BITMAP
40
C0
00
80
80
80
80
80
80
80
80
ENDCHAR
STARTCHAR Icircumflex
ENCODING 206
SWIDTH 270 0
DWIDTH 3 0
BBX 3 11 0 0
BITMAP
60
A0
00
40
40
40
40
40
40
40
40
ENDCHAR
STARTCHAR Idieresis
ENCODING 207
SWIDTH 270 0
DWIDTH 3 0
BBX 3 11 0 0
BITMAP
A0
A0
00
40
40
40
40
40
40
40
40
ENDCHAR
STARTCHAR Eth
ENCODING 208
SWIDTH 672 0
DWIDTH 8 0
BBX 8 8 0 0
BITMAP
7C
66
63
F3
F3
66
7E
7C
ENDCHAR
STARTCHAR Ntilde
ENCODING 209
SWIDTH 689 0
DWIDTH 8 0
BBX 7 11 1 0
BITMAP
78
58
00
C6
E6
E6
B6
96
9E
8E
8E
ENDCHAR
STARTCHAR Ograve
ENCODING 210
SWIDTH 777 0
DWIDTH 9 0
BBX 9 11 0 0
BITMAP
1000
0800
0800
3E00
6300
4180
C180
C180
6180
7F00
3E00
ENDCHAR
STARTCHAR Oacute
ENCODING 211
SWIDTH 777 0
DWIDTH 9 0
BBX 9 11 0 0
BITMAP
0600
0C00
0800
3E00
6300
4180
C180
C180
6180
7F00
3E00
ENDCHAR
STARTCHAR Ocircumflex
ENCODING 212
SWIDTH 777 0
DWIDTH 9 0
BBX 9 11 0 0
BITMAP
0C00
1400
0800
3E00
6300
4180
C180
C180
6180
7F00
3E00
ENDCHAR
STARTCHAR Otilde
ENCODING 213
SWIDTH 777 0
DWIDTH 9 0
BBX 9 11 0 0
BITMAP
1E00
1400
0800
3E00
6300
4180
C180
C180
6180
7F00
3E00
ENDCHAR
STARTCHAR Odieresis
ENCODING 214
SWIDTH 777 0
DWIDTH 9 0
BBX 9 11 0 0
BITMAP
1400
1400
0800
3E00
6300
4180
C180
C180
6180
7F00
3E00
ENDCHAR
STARTCHAR multiply
ENCODING 215
SWIDTH 479 0
DWIDTH 6 0
BBX 4 4 1 2
BITMAP
F0
E0
F0
B0
ENDCHAR
STARTCHAR Oslash
ENCODING 216
SWIDTH 777 0
DWIDTH 9 0
BBX 9 9 0 0
BITMAP
0800
3F00
6300
4580
CD80
D980
7180
7F00
7E00
ENDCHAR
STARTCHAR Ugrave
ENCODING 217
SWIDTH 673 0
DWIDTH 8 0
BBX 6 11 1 0
BITMAP
60
30
00
84
84
84
84
84
CC
FC
78
ENDCHAR
STARTCHAR Uacute
ENCODING 218
SWIDTH 673 0
DWIDTH 8 0
BBX 6 11 1 0
BITMAP
18
10
00
84
84
84
84
84
CC
FC
78
ENDCHAR
STARTCHAR Ucircumflex
ENCODING 219
SWIDTH 673 0
DWIDTH 8 0
BBX 6 11 1 0
BITMAP
30
30
00
84
84
84
84
84
CC
FC
78
ENDCHAR
STARTCHAR Udieresis
ENCODING 220
SWIDTH 673 0
DWIDTH 8 0
BBX 6 10 1 0
BITMAP
68
08
84
84
84
84
84
CC
FC
78
ENDCHAR
STARTCHAR Yacute
ENCODING 221
SWIDTH 620 0
DWIDTH 7 0
BBX 7 11 0 0
BITMAP
0C
18
00
C6
C6
C6
66
7C
18
18
18
ENDCHAR
STARTCHAR Thorn
ENCODING 222
SWIDTH 637 0
DWIDTH 8 0
BBX 6 9 1 0
BITMAP
80
F0
FC
8C
84
84
FC
F8
80
ENDCHAR
STARTCHAR germandbls
ENCODING 223
SWIDTH 813 0
DWIDTH 10 0
BBX 10 9 0 0
BITMAP
3E00
6300
6300
EE00
7800
6F80
6FC0
6FC0
6F80
ENDCHAR
STARTCHAR agrave
ENCODING 224
SWIDTH 607 0
DWIDTH 7 0
BBX 7 9 0 0
BITMAP
20
30
10
7E
4E
C6
C6
6E
3A
ENDCHAR
STARTCHAR aacute
ENCODING 225
SWIDTH 607 0
DWIDTH 7 0
BBX 7 9 0 0
BITMAP
08
10
10
7E
4E
C6
C6
6E
3A
ENDCHAR
STARTCHAR acircumflex
ENCODING 226
SWIDTH 607 0
DWIDTH 7 0
BBX 7 9 0 0
BITMAP
10
28
10
7E
4E
C6
C6
6E
3A
ENDCHAR
STARTCHAR atilde
ENCODING 227
SWIDTH 607 0
DWIDTH 7 0
BBX 7 9 0 0
BITMAP
38
28
10
7E
4E
C6
C6
6E
3A
ENDCHAR
STARTCHAR adieresis
ENCODING 228
SWIDTH 607 0
DWIDTH 7 0
BBX 7 9 0 0
BITMAP
28
28
10
7E
4E
C6
C6
6E
3A
ENDCHAR
STARTCHAR aring
ENCODING 229
SWIDTH 607 0
DWIDTH 7 0
BBX 7 9 0 0
BITMAP
28
10
10
7E
4E
C6
C6
6E
3A
ENDCHAR
STARTCHAR ae
ENCODING 230
SWIDTH 976 0
DWIDTH 12 0
BBX 11 7 0 0
BITMAP
1000
7FE0
4F60
C6C0
C680
6FE0
3BE0
ENDCHAR
STARTCHAR ccedilla
ENCODING 231
SWIDTH 521 0
DWIDTH 6 0
BBX 6 10 0 -3
BITMAP
10
7C
4C
C0
C0
6C
38
10
30
30
ENDCHAR
STARTCHAR egrave
ENCODING 232
SWIDTH 524 0
DWIDTH 6 0
BBX 6 9 0 0
BITMAP
20
30
10
7C
4C
D8
F0
6C
38
ENDCHAR
STARTCHAR eacute
ENCODING 233
SWIDTH 524 0
DWIDTH 6 0
BBX 6 9 0 0
BITMAP
08
10
10
7C
4C
D8
F0
6C
38
ENDCHAR
STARTCHAR ecircumflex
ENCODING 234
SWIDTH 524 0
DWIDTH 6 0
BBX 6 9 0 0
BITMAP
30
20
10
7C
4C
D8
F0
6C
38
ENDCHAR
STARTCHAR edieresis
ENCODING 235
SWIDTH 524 0
DWIDTH 6 0
BBX 6 9 0 0
BITMAP
28
28
10
7C
4C
D8
F0
6C
38
ENDCHAR
STARTCHAR igrave
ENCODING 236
SWIDTH 235 0
DWIDTH 3 0
BBX 2 9 0 0
BITMAP
80
C0
00
40
40
40
40
40
40
ENDCHAR
STARTCHAR iacute
ENCODING 237
SWIDTH 235 0
DWIDTH 3 0
BBX 2 9 1 0
BITMAP
40
80
00
80
80
80
80
80
80
ENDCHAR
STARTCHAR icircumflex
ENCODING 238
SWIDTH 235 0
DWIDTH 3 0
BBX 3 9 0 0
BITMAP
40
A0
00
40
40
40
40
40
40
ENDCHAR
STARTCHAR idieresis
ENCODING 239
SWIDTH 235 0
DWIDTH 3 0
BBX 3 8 0 0
BITMAP
A0
A0
40
40
40
40
40
40
ENDCHAR
STARTCHAR eth
ENCODING 240
SWIDTH 581 0
DWIDTH 7 0
BBX 7 9 0 0
BITMAP
18
3C
0C
7C
44
C6
C6
6C
38
ENDCHAR
STARTCHAR ntilde
ENCODING 241
SWIDTH 562 0
DWIDTH 7 0
BBX 5 9 1 0
BITMAP
70
50
00
F0
D8
88
88
88
88
ENDCHAR
STARTCHAR ograve
ENCODING 242
SWIDTH 579 0
DWIDTH 7 0
BBX 7 9 0 0
BITMAP
20
30
10
7C
44
C6
C6
6C
38
ENDCHAR
STARTCHAR oacute
ENCODING 243
SWIDTH 579 0
DWIDTH 7 0
BBX 7 9 0 0
BITMAP
08
10
10
7C
44
C6
C6
6C
38
ENDCHAR
STARTCHAR ocircumflex
ENCODING 244
SWIDTH 579 0
DWIDTH 7 0
BBX 7 9 0 0
BITMAP
10
28
10
7C
44
C6
C6
6C
38
ENDCHAR
STARTCHAR otilde
ENCODING 245
SWIDTH 579 0
DWIDTH 7 0
BBX 7 9 0 0
BITMAP
38
28
10
7C
44
C6
C6
6C
38
ENDCHAR
STARTCHAR odieresis
ENCODING 246
SWIDTH 579 0
DWIDTH 7 0
BBX 7 9 0 0
BITMAP
28
28
10
7C
44
C6
C6
6C
38
ENDCHAR
STARTCHAR divide
ENCODING 247
SWIDTH 494 0
DWIDTH 6 0
BBX 5 5 0 2
BITMAP
30
00
F8
F8
30
ENDCHAR
STARTCHAR oslash
ENCODING 248
SWIDTH 579 0
DWIDTH 7 0
BBX 7 7 0 0
BITMAP
10
7C
4C
DE
F6
6C
78
ENDCHAR
STARTCHAR ugrave
ENCODING 249
SWIDTH 562 0
DWIDTH 7 0
BBX 5 9 1 0
BITMAP
40
60
00
88
88
88
98
F8
78
ENDCHAR
STARTCHAR uacute
ENCODING 250
SWIDTH 562 0
DWIDTH 7 0
BBX 5 9 1 0
BITMAP
30
20
00
88
88
88
98
F8
78
ENDCHAR
STARTCHAR ucircumflex
ENCODING 251
SWIDTH 562 0
DWIDTH 7 0
BBX 5 9 1 0
BITMAP
60
50
00
88
88
88
98
F8
78
ENDCHAR
STARTCHAR udieresis
ENCODING 252
SWIDTH 562 0
DWIDTH 7 0
BBX 5 8 1 0
BITMAP
50
50
88
88
88
98
F8
78
ENDCHAR
STARTCHAR yacute
ENCODING 253
SWIDTH 562 0
DWIDTH 7 0
BBX 5 11 1 -2
BITMAP
30
20
00
88
88
88
98
F8
78
18
70
ENDCHAR
STARTCHAR thorn
ENCODING 254
SWIDTH 608 0
DWIDTH 7 0
BBX 6 11 1 -2
BITMAP
80
80
80
F8
CC
8C
8C
FC
F8
80
80
ENDCHAR
STARTCHAR ydieresis
ENCODING 255
SWIDTH 562 0
DWIDTH 7 0
BBX 5 10 1 -2
BITMAP
50
50
88
88
88
98
F8
78
18
70
ENDCHAR
STARTCHAR Amacron
ENCODING 256
SWIDTH 673 0
DWIDTH 8 0
BBX 6 10 1 0
BITMAP
38
38
78
CC
84
84
84
FC
84
84
ENDCHAR
STARTCHAR amacron
ENCODING 257
SWIDTH 607 0
DWIDTH 7 0
BBX 7 9 0 0
BITMAP
38
38
10
7E
4E
C6
C6
6E
3A
ENDCHAR
STARTCHAR Abreve
ENCODING 258
SWIDTH 673 0
DWIDTH 8 0
BBX 6 10 1 0
BITMAP
30
00
78
CC
84
84
84
FC
84
84
ENDCHAR
STARTCHAR abreve
ENCODING 259
SWIDTH 607 0
DWIDTH 7 0
BBX 7 9 0 0
BITMAP
38
10
10
7E
4E
C6
C6
6E
3A
ENDCHAR
STARTCHAR Aogonek
ENCODING 260
SWIDTH 673 0
DWIDTH 8 0
BBX 7 10 1 -2
BITMAP
78
CC
84
84
84
FC
84
84
04
0E
ENDCHAR
STARTCHAR aogonek
ENCODING 261
SWIDTH 607 0
DWIDTH 7 0
BBX 8 9 0 -2
BITMAP
10
7E
4E
C6
C6
6E
3A
04
07
ENDCHAR
STARTCHAR Cacute
ENCODING 262
SWIDTH 640 0
DWIDTH 8 0
BBX 7 11 0 0
BITMAP
04
08
08
3E
62
40
C0
C0
60
7E
3E
ENDCHAR
STARTCHAR cacute
ENCODING 263
SWIDTH 521 0
DWIDTH 6 0
BBX 6 9 0 0
BITMAP
18
10
10
7C
4C
C0
C0
6C
38
ENDCHAR
STARTCHAR Ccircumflex
ENCODING 264
SWIDTH 640 0
DWIDTH 8 0
BBX 7 11 0 0
BITMAP
18
14
08
3E
62
40
C0
C0
60
7E
3E
ENDCHAR
STARTCHAR ccircumflex
ENCODING 265
SWIDTH 521 0
DWIDTH 6 0
BBX 6 9 0 0
BITMAP
10
28
10
7C
4C
C0
C0
6C
38
ENDCHAR
STARTCHAR Cdotaccent
ENCODING 266
SWIDTH 640 0
DWIDTH 8 0
BBX 7 11 0 0
BITMAP
08
08
08
3E
62
40
C0
C0
60
7E
3E
ENDCHAR
STARTCHAR cdotaccent
ENCODING 267
SWIDTH 521 0
DWIDTH 6 0
BBX 6 9 0 0
BITMAP
10
10
10
7C
4C
C0
C0
6C
38
ENDCHAR
STARTCHAR Ccaron
ENCODING 268
SWIDTH 640 0
DWIDTH 8 0
BBX 7 11 0 0
BITMAP
1C
08
08
3E
62
40
C0
C0
60
7E
3E
ENDCHAR
STARTCHAR ccaron
ENCODING 269
SWIDTH 521 0
DWIDTH 6 0
BBX 6 9 0 0
BITMAP
38
10
10
7C
4C
C0
C0
6C
38
ENDCHAR
STARTCHAR Dcaron
ENCODING 270
SWIDTH 653 0
DWIDTH 8 0
BBX 7 11 1 0
BITMAP
70
00
00
F8
9C
8C
86
84
8C
FC
F0
ENDCHAR
STARTCHAR dcaron
ENCODING 271
SWIDTH 740 0
DWIDTH 9 0
BBX 9 9 0 0
BITMAP
0600
0780
1680
7E00
4E00
C600
C600
6E00
3A00
ENDCHAR
STARTCHAR Dcroat
ENCODING 272
SWIDTH 672 0
DWIDTH 8 0
BBX 8 8 0 0
BITMAP
7C
66
63
F3
F3
66
7E
7C
ENDCHAR
STARTCHAR dcroat
ENCODING 273
SWIDTH 606 0
DWIDTH 7 0
BBX 7 9 0 0
BITMAP
06
0E
16
7E
4E
C6
C6
6E
3A
ENDCHAR
STARTCHAR Emacron
ENCODING 274
SWIDTH 578 0
DWIDTH 7 0
BBX 6 10 1 0
BITMAP
70
70
FC
80
80
F0
F0
80
FC
FC
ENDCHAR
STARTCHAR emacron
ENCODING 275
SWIDTH 524 0
DWIDTH 6 0
BBX 6 9 0 0
BITMAP
38
38
10
7C
4C
D8
F0
6C
38
ENDCHAR
STARTCHAR Ebreve
ENCODING 276
SWIDTH 578 0
DWIDTH 7 0
BBX 6 10 1 0
BITMAP
70
20
FC
80
80
F0
F0
80
FC
FC
ENDCHAR
STARTCHAR ebreve
ENCODING 277
SWIDTH 524 0
DWIDTH 6 0
BBX 6 9 0 0
BITMAP
38
10
10
7C
4C
D8
F0
6C
38
ENDCHAR
STARTCHAR Edotaccent
ENCODING 278
SWIDTH 578 0
DWIDTH 7 0
BBX 6 10 1 0
BITMAP
20
20
FC
80
80
F0
F0
80
FC
FC
ENDCHAR
STARTCHAR edotaccent
ENCODING 279
SWIDTH 524 0
DWIDTH 6 0
BBX 6 9 0 0
BITMAP
10
10
10
7C
4C
D8
F0
6C
38
ENDCHAR
STARTCHAR Eogonek
ENCODING 280
SWIDTH 578 0
DWIDTH 7 0
BBX 6 10 1 -2
BITMAP
FC
80
80
F0
F0
80
FC
FC
10
1C
ENDCHAR
STARTCHAR eogonek
ENCODING 281
SWIDTH 524 0
DWIDTH 6 0
BBX 6 9 0 -2
BITMAP
10
7C
4C
D8
F0
6C
38
10
1C
ENDCHAR
STARTCHAR Ecaron
ENCODING 282
SWIDTH 578 0
DWIDTH 7 0
BBX 6 11 1 0
BITMAP
70
20
00
FC
80
80
F0
F0
80
FC
FC
ENDCHAR
STARTCHAR ecaron
ENCODING 283
SWIDTH 524 0
DWIDTH 6 0
BBX 6 9 0 0
BITMAP
38
10
10
7C
4C
D8
F0
6C
38
ENDCHAR
STARTCHAR Gcircumflex
ENCODING 284
SWIDTH 665 0
DWIDTH 8 0
BBX 7 11 0 0
BITMAP
08
14
00
3E
62
40
C0
C2
62
76
3E
ENDCHAR
STARTCHAR gcircumflex
ENCODING 285
SWIDTH 607 0
DWIDTH 7 0
BBX 7 11 0 -2
BITMAP
10
28
10
7E
4E
C6
C6
6E
3E
0C
1C
ENDCHAR
STARTCHAR Gbreve
ENCODING 286
SWIDTH 665 0
DWIDTH 8 0
BBX 7 11 0 0
BITMAP
14
08
00
3E
62
40
C0
C2
62
76
3E
ENDCHAR
STARTCHAR gbreve
ENCODING 287
SWIDTH 607 0
DWIDTH 7 0
BBX 7 11 0 -2
BITMAP
28
10
10
7E
4E
C6
C6
6E
3E
0C
1C
ENDCHAR
STARTCHAR Gdotaccent
ENCODING 288
SWIDTH 665 0
DWIDTH 8 0
BBX 7 11 0 0
BITMAP
08
08
00
3E
62
40
C0
C2
62
76
3E
ENDCHAR
STARTCHAR gdotaccent
ENCODING 289
SWIDTH 607 0
DWIDTH 7 0
BBX 7 11 0 -2
BITMAP
10
10
10
7E
4E
C6
C6
6E
3E
0C
1C
ENDCHAR
STARTCHAR Gcommaaccent
ENCODING 290
SWIDTH 665 0
DWIDTH 8 0
BBX 7 11 0 -3
BITMAP
3E
62
40
C0
C2
62
76
3E
00
08
08
ENDCHAR
STARTCHAR gcommaaccent
ENCODING 291
SWIDTH 607 0
DWIDTH 7 0
BBX 7 12 0 -2
BITMAP
10
10
10
10
7E
4E
C6
C6
6E
3E
0C
1C
ENDCHAR
STARTCHAR Hcircumflex
ENCODING 292
SWIDTH 689 0
DWIDTH 8 0
BBX 7 11 1 0
BITMAP
30
20
00
86
86
86
FE
FE
86
86
86
ENDCHAR
STARTCHAR hcircumflex
ENCODING 293
SWIDTH 562 0
DWIDTH 7 0
BBX 5 9 1 0
BITMAP
B0
A0
80
F0
D8
88
88
88
88
ENDCHAR
STARTCHAR Hbar
ENCODING 294
SWIDTH 689 0
DWIDTH 8 0
BBX 8 8 0 0
BITMAP
43
FF
43
7F
7F
43
43
43
ENDCHAR
STARTCHAR hbar
ENCODING 295
SWIDTH 562 0
DWIDTH 7 0
BBX 6 9 0 0
BITMAP
40
E0
40
78
6C
44
44
44
44
ENDCHAR
STARTCHAR Itilde
ENCODING 296
SWIDTH 270 0
DWIDTH 3 0
BBX 4 11 0 0
BITMAP
F0
A0
00
40
40
40
40
40
40
40
40
ENDCHAR
STARTCHAR itilde
ENCODING 297
SWIDTH 235 0
DWIDTH 3 0
BBX 3 8 0 0
BITMAP
E0
A0
40
40
40
40
40
40
ENDCHAR
STARTCHAR Imacron
ENCODING 298
SWIDTH 270 0
DWIDTH 3 0
BBX 3 10 0 0
BITMAP
E0
E0
40
40
40
40
40
40
40
40
ENDCHAR
STARTCHAR imacron
ENCODING 299
SWIDTH 235 0
DWIDTH 3 0
BBX 3 8 0 0
BITMAP
E0
E0
40
40
40
40
40
40
ENDCHAR
STARTCHAR Ibreve
ENCODING 300
SWIDTH 270 0
DWIDTH 3 0
BBX 3 10 0 0
BITMAP
E0
40
40
40
40
40
40
40
40
40
ENDCHAR
STARTCHAR ibreve
ENCODING 301
SWIDTH 235 0
DWIDTH 3 0
BBX 3 8 0 0
BITMAP
A0
40
40
40
40
40
40
40
ENDCHAR
STARTCHAR Iogonek
ENCODING 302
SWIDTH 270 0
DWIDTH 3 0
BBX 3 10 0 -2
BITMAP
40
40
40
40
40
40
40
40
40
E0
ENDCHAR
STARTCHAR iogonek
ENCODING 303
SWIDTH 235 0
DWIDTH 3 0
BBX 3 11 0 -2
BITMAP
C0
C0
00
40
40
40
40
40
40
80
E0
ENDCHAR
STARTCHAR Idotaccent
ENCODING 304
SWIDTH 270 0
DWIDTH 3 0
BBX 1 10 1 0
BITMAP
80
80
80
80
80
80
80
80
80
80
ENDCHAR
STARTCHAR dotlessi
ENCODING 305
SWIDTH 235 0
DWIDTH 3 0
BBX 1 6 1 0
BITMAP
80
80
80
80
80
80
ENDCHAR
STARTCHAR IJ
ENCODING 306
SWIDTH 687 0
DWIDTH 8 0
BBX 7 8 1 0
BITMAP
86
86
86
86
86
84
BC
B8
ENDCHAR
STARTCHAR ij
ENCODING 307
SWIDTH 474 0
DWIDTH 6 0
BBX 5 11 0 -2
BITMAP
D8
D8
00
58
58
58
58
58
58
18
70
ENDCHAR
STARTCHAR Jcircumflex
ENCODING 308
SWIDTH 416 0
DWIDTH 5 0
BBX 5 11 0 0
BITMAP
10
28
00
10
10
10
10
10
30
F0
E0
ENDCHAR
STARTCHAR jcircumflex
ENCODING 309
SWIDTH 237 0
DWIDTH 3 0
BBX 5 11 -2 -2
BITMAP
10
28
00
10
10
10
10
10
10
30
E0
ENDCHAR
STARTCHAR Kcommaaccent
ENCODING 310
SWIDTH 625 0
DWIDTH 8 0
BBX 6 11 1 -3
BITMAP
8C
98
B0
B0
F8
D8
8C
8C
00
30
20
ENDCHAR
STARTCHAR kcommaaccent
ENCODING 311
SWIDTH 539 0
DWIDTH 6 0
BBX 5 12 1 -3
BITMAP
80
80
80
98
B0
E0
F0
D8
98
00
60
20
ENDCHAR
STARTCHAR kgreenlandic
ENCODING 312
SWIDTH 539 0
DWIDTH 6 0
BBX 5 6 1 0
BITMAP
98
B0
E0
F0
D8
98
ENDCHAR
STARTCHAR Lacute
ENCODING 313
SWIDTH 562 0
DWIDTH 7 0
BBX 6 10 1 0
BITMAP
30
20
80
80
80
80
80
80
FC
FC
ENDCHAR
STARTCHAR lacute
ENCODING 314
SWIDTH 235 0
DWIDTH 3 0
BBX 3 11 1 0
BITMAP
60
C0
80
80
80
80
80
80
80
80
80
ENDCHAR
STARTCHAR Lcommaaccent
ENCODING 315
SWIDTH 562 0
DWIDTH 7 0
BBX 6 11 1 -3
BITMAP
80
80
80
80
80
80
FC
FC
00
20
20
ENDCHAR
STARTCHAR lcommaaccent
ENCODING 316
SWIDTH 235 0
DWIDTH 3 0
BBX 1 12 1 -3
BITMAP
80
80
80
80
80
80
80
80
80
00
80
80
ENDCHAR
STARTCHAR Lcaron
ENCODING 317
SWIDTH 562 0
DWIDTH 7 0
BBX 6 8 1 0
BITMAP
B0
90
80
80
80
80
FC
FC
ENDCHAR
STARTCHAR lcaron
ENCODING 318
SWIDTH 369 0
DWIDTH 4 0
BBX 3 9 1 0
BITMAP
80
A0
A0
80
80
80
80
80
80
ENDCHAR
STARTCHAR Ldot
ENCODING 319
SWIDTH 745 0
DWIDTH 9 0
BBX 7 8 1 0
BITMAP
80
80
80
86
82
80
FC
FC
ENDCHAR
STARTCHAR ldotaccent
ENCODING 320
SWIDTH 463 0
DWIDTH 6 0
BBX 4 9 1 0
BITMAP
80
80
80
80
B0
B0
80
80
80
ENDCHAR
STARTCHAR Lslash
ENCODING 321
SWIDTH 585 0
DWIDTH 7 0
BBX 7 8 0 0
BITMAP
60
60
70
70
E0
60
7E
7E
ENDCHAR
STARTCHAR lslash
ENCODING 322
SWIDTH 319 0
DWIDTH 4 0
BBX 4 9 0 0
BITMAP
60
60
60
70
70
E0
60
60
60
ENDCHAR
STARTCHAR Nacute
ENCODING 323
SWIDTH 689 0
DWIDTH 8 0
BBX 7 11 1 0
BITMAP
18
10
00
C6
E6
E6
B6
96
9E
8E
8E
ENDCHAR
STARTCHAR nacute
ENCODING 324
SWIDTH 562 0
DWIDTH 7 0
BBX 5 9 1 0
BITMAP
10
30
00
F0
D8
88
88
88
88
ENDCHAR
STARTCHAR Ncommaaccent
ENCODING 325
SWIDTH 689 0
DWIDTH 8 0
BBX 7 11 1 -3
BITMAP
C6
E6
E6
B6
96
9E
8E
8E
00
30
10
ENDCHAR
STARTCHAR ncommaaccent
ENCODING 326
SWIDTH 562 0
DWIDTH 7 0
BBX 5 9 1 -3
BITMAP
F0
D8
88
88
88
88
00
20
20
ENDCHAR
STARTCHAR Ncaron
ENCODING 327
SWIDTH 689 0
DWIDTH 8 0
BBX 7 11 1 0
BITMAP
38
10
00
C6
E6
E6
B6
96
9E
8E
8E
ENDCHAR
STARTCHAR ncaron
ENCODING 328
SWIDTH 562 0
DWIDTH 7 0
BBX 5 9 1 0
BITMAP
70
20
00
F0
D8
88
88
88
88
ENDCHAR
STARTCHAR napostrophe
ENCODING 329
SWIDTH 694 0
DWIDTH 8 0
BBX 8 8 0 0
BITMAP
C0
00
3E
33
33
33
33
33
ENDCHAR
STARTCHAR Eng
ENCODING 330
SWIDTH 689 0
DWIDTH 8 0
BBX 7 10 1 -2
BITMAP
C6
E6
E6
B6
96
9E
8E
8C
0C
38
ENDCHAR
STARTCHAR eng
ENCODING 331
SWIDTH 562 0
DWIDTH 7 0
BBX 5 8 1 -2
BITMAP
F0
D8
88
88
88
88
18
70
ENDCHAR
STARTCHAR Omacron
ENCODING 332
SWIDTH 777 0
DWIDTH 9 0
BBX 9 11 0 0
BITMAP
1C00
1C00
0800
3E00
6300
4180
C180
C180
6180
7F00
3E00
ENDCHAR
STARTCHAR omacron
ENCODING 333
SWIDTH 579 0
DWIDTH 7 0
BBX 7 9 0 0
BITMAP
38
38
10
7C
44
C6
C6
6C
38
ENDCHAR
STARTCHAR Obreve
ENCODING 334
SWIDTH 777 0
DWIDTH 9 0
BBX 9 11 0 0
BITMAP
1C00
0800
0800
3E00
6300
4180
C180
C180
6180
7F00
3E00
ENDCHAR
STARTCHAR obreve
ENCODING 335
SWIDTH 579 0
DWIDTH 7 0
BBX 7 9 0 0
BITMAP
28
10
10
7C
44
C6
C6
6C
38
ENDCHAR
STARTCHAR Ohungarumlaut
ENCODING 336
SWIDTH 777 0
DWIDTH 9 0
BBX 9 12 0 0
BITMAP
0A00
1E00
0400
0800
3E00
6300
4180
C180
C180
6180
7F00
3E00
ENDCHAR
STARTCHAR ohungarumlaut
ENCODING 337
SWIDTH 579 0
DWIDTH 7 0
BBX 7 9 0 0
BITMAP
10
3C
38
7C
44
C6
C6
6C
38
ENDCHAR
STARTCHAR OE
ENCODING 338
SWIDTH 1125 0
DWIDTH 14 0
BBX 13 9 0 0
BITMAP
0800
3FF8
6380
4180
C1F0
C1F0
6180
7FF8
3FF8
ENDCHAR
STARTCHAR oe
ENCODING 339
SWIDTH 924 0
DWIDTH 11 0
BBX 11 7 0 0
BITMAP
1080
7FE0
46C0
C6C0
C780
6FE0
3BC0
ENDCHAR
STARTCHAR Racute
ENCODING 340
SWIDTH 651 0
DWIDTH 8 0
BBX 6 11 1 0
BITMAP
18
30
00
F8
8C
84
84
8C
F8
98
8C
ENDCHAR
STARTCHAR racute
ENCODING 341
SWIDTH 414 0
DWIDTH 5 0
BBX 4 9 1 0
BITMAP
20
60
00
F0
C0
80
80
80
80
ENDCHAR
STARTCHAR Rcommaaccent
ENCODING 342
SWIDTH 651 0
DWIDTH 8 0
BBX 6 10 1 -2
BITMAP
F8
8C
84
84
8C
F8
98
8C
00
30
ENDCHAR
STARTCHAR rcommaaccent
ENCODING 343
SWIDTH 414 0
DWIDTH 5 0
BBX 4 9 1 -3
BITMAP
F0
C0
80
80
80
80
00
80
80
ENDCHAR
STARTCHAR Rcaron
ENCODING 344
SWIDTH 651 0
DWIDTH 8 0
BBX 6 11 1 0
BITMAP
70
00
00
F8
8C
84
84
8C
F8
98
8C
ENDCHAR
STARTCHAR rcaron
ENCODING 345
SWIDTH 414 0
DWIDTH 5 0
BBX 4 9 1 0
BITMAP
E0
40
00
F0
C0
80
80
80
80
ENDCHAR
STARTCHAR Sacute
ENCODING 346
SWIDTH 610 0
DWIDTH 7 0
BBX 7 11 0 0
BITMAP
0C
18
00
7E
C0
C0
7C
3E
06
7E
7C
ENDCHAR
STARTCHAR sacute
ENCODING 347
SWIDTH 523 0
DWIDTH 6 0
BBX 6 9 0 0
BITMAP
18
10
00
7C
C0
78
7C
FC
F8
ENDCHAR
STARTCHAR Scircumflex
ENCODING 348
SWIDTH 610 0
DWIDTH 7 0
BBX 7 11 0 0
BITMAP
18
28
00
7E
C0
C0
7C
3E
06
7E
7C
ENDCHAR
STARTCHAR scircumflex
ENCODING 349
SWIDTH 523 0
DWIDTH 6 0
BBX 6 9 0 0
BITMAP
30
20
00
7C
C0
78
7C
FC
F8
ENDCHAR
STARTCHAR Scedilla
ENCODING 350
SWIDTH 610 0
DWIDTH 7 0
BBX 7 11 0 -3
BITMAP
7E
C0
C0
7C
3E
06
7E
7C
10
08
10
ENDCHAR
STARTCHAR scedilla
ENCODING 351
SWIDTH 523 0
DWIDTH 6 0
BBX 6 9 0 -3
BITMAP
7C
C0
78
7C
FC
F8
10
10
30
ENDCHAR
STARTCHAR Scaron
ENCODING 352
SWIDTH 610 0
DWIDTH 7 0
BBX 7 11 0 0
BITMAP
38
10
00
7E
C0
C0
7C
3E
06
7E
7C
ENDCHAR
STARTCHAR scaron
ENCODING 353
SWIDTH 523 0
DWIDTH 6 0
BBX 6 9 0 0
BITMAP
38
10
00
7C
C0
78
7C
FC
F8
ENDCHAR
STARTCHAR Tcommaaccent
ENCODING 354
SWIDTH 578 0
DWIDTH 7 0
BBX 7 11 0 -3
BITMAP
FE
10
10
10
10
10
10
10
00
10
10
ENDCHAR
STARTCHAR tcommaaccent
ENCODING 355
SWIDTH 437 0
DWIDTH 5 0
BBX 5 12 0 -3
BITMAP
60
60
60
F8
60
60
60
78
38
00
20
20
ENDCHAR
STARTCHAR Tcaron
ENCODING 356
SWIDTH 578 0
DWIDTH 7 0
BBX 7 11 0 0
BITMAP
38
10
00
FE
10
10
10
10
10
10
10
ENDCHAR
STARTCHAR tcaron
ENCODING 357
SWIDTH 570 0
DWIDTH 7 0
BBX 7 9 0 0
BITMAP
60
66
62
F8
60
60
60
78
38
ENDCHAR
STARTCHAR Tbar
ENCODING 358
SWIDTH 578 0
DWIDTH 7 0
BBX 7 8 0 0
BITMAP
FE
10
10
10
38
10
10
10
ENDCHAR
STARTCHAR tbar
ENCODING 359
SWIDTH 437 0
DWIDTH 5 0
BBX 5 9 0 0
BITMAP
60
60
60
F8
60
F0
60
78
38
ENDCHAR
STARTCHAR Utilde
ENCODING 360
SWIDTH 673 0
DWIDTH 8 0
BBX 6 11 1 0
BITMAP
78
58
00
84
84
84
84
84
CC
FC
78
ENDCHAR
STARTCHAR utilde
ENCODING 361
SWIDTH 562 0
DWIDTH 7 0
BBX 5 8 1 0
BITMAP
F0
50
88
88
88
98
F8
78
ENDCHAR
STARTCHAR Umacron
ENCODING 362
SWIDTH 673 0
DWIDTH 8 0
BBX 6 10 1 0
BITMAP
38
38
84
84
84
84
84
CC
FC
78
ENDCHAR
STARTCHAR umacron
ENCODING 363
SWIDTH 562 0
DWIDTH 7 0
BBX 5 8 1 0
BITMAP
70
70
88
88
88
98
F8
78
ENDCHAR
STARTCHAR Ubreve
ENCODING 364
SWIDTH 673 0
DWIDTH 8 0
BBX 6 10 1 0
BITMAP
30
10
84
84
84
84
84
CC
FC
78
ENDCHAR
STARTCHAR ubreve
ENCODING 365
SWIDTH 562 0
DWIDTH 7 0
BBX 5 8 1 0
BITMAP
70
20
88
88
88
98
F8
78
ENDCHAR
STARTCHAR Uring
ENCODING 366
SWIDTH 673 0
DWIDTH 8 0
BBX 6 11 1 0
BITMAP
30
30
00
84
84
84
84
84
CC
FC
78
ENDCHAR
STARTCHAR uring
ENCODING 367
SWIDTH 562 0
DWIDTH 7 0
BBX 5 8 1 0
BITMAP
50
20
88
88
88
98
F8
78
ENDCHAR
STARTCHAR Uhungarumlaut
ENCODING 368
SWIDTH 673 0
DWIDTH 8 0
BBX 6 12 1 0
BITMAP
20
2C
08
00
84
84
84
84
84
CC
FC
78
ENDCHAR
STARTCHAR uhungarumlaut
ENCODING 369
SWIDTH 562 0
DWIDTH 7 0
BBX 5 9 1 0
BITMAP
20
78
50
88
88
88
98
F8
78
ENDCHAR
STARTCHAR Uogonek
ENCODING 370
SWIDTH 673 0
DWIDTH 8 0
BBX 6 10 1 -2
BITMAP
84
84
84
84
84
CC
FC
78
20
30
ENDCHAR
STARTCHAR uogonek
ENCODING 371
SWIDTH 562 0
DWIDTH 7 0
BBX 6 8 1 -2
BITMAP
88
88
88
98
F8
78
08
0C
ENDCHAR
STARTCHAR Wcircumflex
ENCODING 372
SWIDTH 819 0
DWIDTH 10 0
BBX 8 11 1 0
BITMAP
18
18
00
9B
9B
9B
9B
9B
9B
FF
7E
ENDCHAR
STARTCHAR wcircumflex
ENCODING 373
SWIDTH 756 0
DWIDTH 9 0
BBX 8 9 1 0
BITMAP
10
28
00
93
93
93
93
FE
FE
ENDCHAR
STARTCHAR Ycircumflex
ENCODING 374
SWIDTH 620 0
DWIDTH 7 0
BBX 7 11 0 0
BITMAP
18
28
00
C6
C6
C6
66
7C
18
18
18
ENDCHAR
STARTCHAR ycircumflex
ENCODING 375
SWIDTH 562 0
DWIDTH 7 0
BBX 5 11 1 -2
BITMAP
60
50
00
88
88
88
98
F8
78
18
70
ENDCHAR
STARTCHAR Ydieresis
ENCODING 376
SWIDTH 620 0
DWIDTH 7 0
BBX 7 11 0 0
BITMAP
28
28
00
C6
C6
C6
66
7C
18
18
18
ENDCHAR
STARTCHAR Zacute
ENCODING 377
SWIDTH 586 0
DWIDTH 7 0
BBX 7 11 0 0
BITMAP
08
18
00
FC
0C
18
18
30
30
7E
7E
ENDCHAR
STARTCHAR zacute
ENCODING 378
SWIDTH 481 0
DWIDTH 6 0
BBX 6 9 0 0
BITMAP
18
10
00
F8
18
30
20
7C
7C
ENDCHAR
STARTCHAR Zdotaccent
ENCODING 379
SWIDTH 586 0
DWIDTH 7 0
BBX 7 10 0 0
BITMAP
10
10
FC
0C
18
18
30
30
7E
7E
ENDCHAR
STARTCHAR zdotaccent
ENCODING 380
SWIDTH 481 0
DWIDTH 6 0
BBX 6 8 0 0
BITMAP
30
00
F8
18
30
20
7C
7C
ENDCHAR
STARTCHAR Zcaron
ENCODING 381
SWIDTH 586 0
DWIDTH 7 0
BBX 7 11 0 0
BITMAP
38
10
00
FC
0C
18
18
30
30
7E
7E
ENDCHAR
STARTCHAR zcaron
ENCODING 382
SWIDTH 481 0
DWIDTH 6 0
BBX 6 9 0 0
BITMAP
70
00
00
F8
18
30
20
7C
7C
ENDCHAR
STARTCHAR AEacute
ENCODING 508
SWIDTH 988 0
DWIDTH 12 0
BBX 10 11 1 0
BITMAP
0200
0600
0000
7FC0
C400
8400
8780
8780
FC00
87C0
87C0
ENDCHAR
STARTCHAR aeacute
ENCODING 509
SWIDTH 976 0
DWIDTH 12 0
BBX 11 9 0 0
BITMAP
0300
0200
1000
7FE0
4F60
C6C0
C680
6FE0
3BE0
ENDCHAR
STARTCHAR Oslashacute
ENCODING 510
SWIDTH 777 0
DWIDTH 9 0
BBX 9 11 0 0
BITMAP
0400
0C00
0800
3F00
6300
4580
CD80
D980
7180
7F00
7E00
ENDCHAR
STARTCHAR oslashacute
ENCODING 511
SWIDTH 579 0
DWIDTH 7 0
BBX 7 9 0 0
BITMAP
08
18
10
7C
4C
DE
F6
6C
78
ENDCHAR
STARTCHAR dotlessj
ENCODING 567
SWIDTH 237 0
DWIDTH 3 0
BBX 4 8 -2 -2
BITMAP
10
10
10
10
10
10
30
E0
ENDCHAR
STARTCHAR circumflex
ENCODING 710
SWIDTH 267 0
DWIDTH 3 0
BBX 3 2 0 6
BITMAP
60
A0
ENDCHAR
STARTCHAR caron
ENCODING 711
SWIDTH 267 0
DWIDTH 3 0
BBX 3 2 0 6
BITMAP
E0
40
ENDCHAR
STARTCHAR breve
ENCODING 728
SWIDTH 220 0
DWIDTH 3 0
BBX 3 2 0 6
BITMAP
E0
40
ENDCHAR
STARTCHAR dotaccent
ENCODING 729
SWIDTH 125 0
DWIDTH 2 0
BBX 1 2 0 6
BITMAP
80
80
ENDCHAR
STARTCHAR ring
ENCODING 730
SWIDTH 192 0
DWIDTH 2 0
BBX 2 2 0 6
BITMAP
C0
C0
ENDCHAR
STARTCHAR ogonek
ENCODING 731
SWIDTH 212 0
DWIDTH 3 0
BBX 3 2 0 -2
BITMAP
80
E0
ENDCHAR
STARTCHAR tilde
ENCODING 732
SWIDTH 321 0
DWIDTH 4 0
BBX 4 2 0 6
BITMAP
F0
A0
ENDCHAR
STARTCHAR hungarumlaut
ENCODING 733
SWIDTH 384 0
DWIDTH 5 0
BBX 4 3 0 6
BITMAP
50
D0
20
ENDCHAR
STARTCHAR uni0312
ENCODING 786
SWIDTH 192 0
DWIDTH 2 0
BBX 2 3 0 6
BITMAP
40
C0
40
ENDCHAR
STARTCHAR uni0315
ENCODING 789
SWIDTH 132 0
DWIDTH 2 0
BBX 2 1 0 7
BITMAP
C0
ENDCHAR
STARTCHAR uni0326
ENCODING 806
SWIDTH 193 0
DWIDTH 2 0
BBX 2 2 0 -3
BITMAP
C0
40
ENDCHAR
STARTCHAR pi
ENCODING 960
SWIDTH 555 0
DWIDTH 7 0
BBX 6 6 0 0
BITMAP
FC
68
68
68
68
68
ENDCHAR
STARTCHAR Wgrave
ENCODING 7808
SWIDTH 819 0
DWIDTH 10 0
BBX 8 11 1 0
BITMAP
30
10
00
9B
9B
9B
9B
9B
9B
FF
7E
ENDCHAR
STARTCHAR wgrave
ENCODING 7809
SWIDTH 756 0
DWIDTH 9 0
BBX 8 9 1 0
BITMAP
60
30
00
93
93
93
93
FE
FE
ENDCHAR
STARTCHAR Wacute
ENCODING 7810
SWIDTH 819 0
DWIDTH 10 0
BBX 8 11 1 0
BITMAP
0C
08
00
9B
9B
9B
9B
9B
9B
FF
7E
ENDCHAR
STARTCHAR wacute
ENCODING 7811
SWIDTH 756 0
DWIDTH 9 0
BBX 8 9 1 0
BITMAP
0C
18
00
93
93
93
93
FE
FE
ENDCHAR
STARTCHAR Wdieresis
ENCODING 7812
SWIDTH 819 0
DWIDTH 10 0
BBX 8 11 1 0
BITMAP
2C
20
00
9B
9B
9B
9B
9B
9B
FF
7E
ENDCHAR
STARTCHAR wdieresis
ENCODING 7813
SWIDTH 756 0
DWIDTH 9 0
BBX 8 8 1 0
BITMAP
28
28
93
93
93
93
FE
FE
ENDCHAR
STARTCHAR Ygrave
ENCODING 7922
SWIDTH 620 0
DWIDTH 7 0
BBX 7 11 0 0
BITMAP
60
30
00
C6
C6
C6
66
7C
18
18
18
ENDCHAR
STARTCHAR ygrave
ENCODING 7923
SWIDTH 562 0
DWIDTH 7 0
BBX 5 11 1 -2
BITMAP
C0
40
00
88
88
88
98
F8
78
18
70
ENDCHAR
STARTCHAR endash
ENCODING 8211
SWIDTH 418 0
DWIDTH 5 0
BBX 3 2 1 3
BITMAP
E0
E0
ENDCHAR
STARTCHAR emdash
ENCODING 8212
SWIDTH 719 0
DWIDTH 9 0
BBX 7 2 1 3
BITMAP
FE
FE
ENDCHAR
STARTCHAR quoteleft
ENCODING 8216
SWIDTH 246 0
DWIDTH 3 0
BBX 1 3 1 5
BITMAP
80
80
80
ENDCHAR
STARTCHAR quoteright
ENCODING 8217
SWIDTH 245 0
DWIDTH 3 0
BBX 2 3 0 5
BITMAP
C0
40
40
ENDCHAR
STARTCHAR quotesinglbase
ENCODING 8218
SWIDTH 264 0
DWIDTH 3 0
BBX 2 3 1 -1
BITMAP
80
C0
80
ENDCHAR
STARTCHAR quotedblleft
ENCODING 8220
SWIDTH 445 0
DWIDTH 5 0
BBX 4 3 1 5
BITMAP
A0
B0
B0
ENDCHAR
STARTCHAR quotedblright
ENCODING 8221
SWIDTH 444 0
DWIDTH 5 0
BBX 5 3 0 5
BITMAP
D8
58
40
ENDCHAR
STARTCHAR quotedblbase
ENCODING 8222
SWIDTH 463 0
DWIDTH 6 0
BBX 4 3 1 -1
BITMAP
80
F0
90
ENDCHAR
STARTCHAR dagger
ENCODING 8224
SWIDTH 434 0
DWIDTH 5 0
BBX 5 11 0 -1
BITMAP
20
20
20
F8
20
20
20
20
20
20
20
ENDCHAR
STARTCHAR daggerdbl
ENCODING 8225
SWIDTH 452 0
DWIDTH 5 0
BBX 5 11 0 -1
BITMAP
30
30
30
F8
30
30
30
F8
F8
30
30
ENDCHAR
STARTCHAR bullet
ENCODING 8226
SWIDTH 354 0
DWIDTH 4 0
BBX 2 3 1 3
BITMAP
40
C0
C0
ENDCHAR
STARTCHAR ellipsis
ENCODING 8230
SWIDTH 789 0
DWIDTH 9 0
BBX 8 2 1 0
BITMAP
92
DB
ENDCHAR
STARTCHAR perthousand
ENCODING 8240
SWIDTH 998 0
DWIDTH 12 0
BBX 12 9 0 0
BITMAP
2000
7600
D400
7C00
6800
1660
1DB0
2DB0
6660
ENDCHAR
STARTCHAR guilsinglleft
ENCODING 8249
SWIDTH 403 0
DWIDTH 5 0
BBX 3 6 1 0
BITMAP
20
60
C0
C0
60
20
ENDCHAR
STARTCHAR guilsinglright
ENCODING 8250
SWIDTH 402 0
DWIDTH 5 0
BBX 3 6 1 0
BITMAP
80
C0
60
60
C0
80
ENDCHAR
STARTCHAR fraction
ENCODING 8260
SWIDTH 477 0
DWIDTH 6 0
BBX 5 8 0 0
BITMAP
08
18
10
30
20
60
40
80
ENDCHAR
STARTCHAR Euro
ENCODING 8364
SWIDTH 806 0
DWIDTH 10 0
BBX 9 9 0 0
BITMAP
0200
0F80
1880
7C00
7C00
7C00
F800
1F80
0F80
ENDCHAR
STARTCHAR trademark
ENCODING 8482
SWIDTH 606 0
DWIDTH 7 0
BBX 4 3 3 5
BITMAP
90
90
90
ENDCHAR
STARTCHAR partialdiff
ENCODING 8706
SWIDTH 609 0
DWIDTH 7 0
BBX 7 9 0 0
BITMAP
18
08
0C
7C
66
C6
C6
6C
3C
ENDCHAR
STARTCHAR product
ENCODING 8719
SWIDTH 632 0
DWIDTH 8 0
BBX 7 8 0 0
BITMAP
FE
2C
2C
2C
2C
2C
2C
2C
ENDCHAR
STARTCHAR minus
ENCODING 8722
SWIDTH 543 0
DWIDTH 7 0
BBX 5 2 1 3
BITMAP
F8
F8
ENDCHAR
STARTCHAR infinity
ENCODING 8734
SWIDTH 771 0
DWIDTH 9 0
BBX 8 6 1 1
BITMAP
64
FE
93
9B
FE
64
ENDCHAR
STARTCHAR approxequal
ENCODING 8776
SWIDTH 476 0
DWIDTH 6 0
BBX 4 5 1 2
BITMAP
D0
F0
A0
D0
B0
ENDCHAR
STARTCHAR notequal
ENCODING 8800
SWIDTH 512 0
DWIDTH 6 0
BBX 5 8 1 0
BITMAP
10
30
F8
60
F8
F8
C0
80
ENDCHAR
STARTCHAR fi
ENCODING 64257
SWIDTH 650 0
DWIDTH 8 0
BBX 7 9 0 0
BITMAP
3E
66
60
FE
62
62
62
62
62
ENDCHAR
STARTCHAR fl
ENCODING 64258
SWIDTH 631 0
DWIDTH 8 0
BBX 7 9 0 0
BITMAP
3E
66
66
FE
66
66
66
66
66
ENDCHAR
STARTCHAR .notdef
ENCODING -1
SWIDTH 279 0
DWIDTH 3 0
BBX 1 1 0 0
BITMAP
00
ENDCHAR
STARTCHAR .null
ENCODING -1
SWIDTH 0 0
DWIDTH 0 0
BBX 1 1 0 0
BITMAP
00
ENDCHAR
STARTCHAR nonmarkingreturn
ENCODING -1
SWIDTH 279 0
DWIDTH 3 0
BBX 1 1 0 0
BITMAP
00
ENDCHAR
ENDFONT
